# xmcd
#
# Track frame offsets: 
#        150
#        40754
#        52742
#        75237
#        98610
#        115876
#        136114
#        151893
#        177387
#        226073
#        245814
#
# Disc length: 3517 seconds
#
# Revision: 0
# Processed by: cddbd v1.5.1PL0 Copyright (c) Steve Scherf et al.
# Submitted via: ExactAudioCopy v0.95a5
#
DISCID=760dbb0b
DTITLE=Knife in the Water - Plays One Sound and Others
DYEAR=1998
DGENRE=Country
TTITLE0=One Sound
TTITLE1=Swallows
TTITLE2=Seat of Pity
TTITLE3=Married Woman
TTITLE4=Norma
TTITLE5=Come on Cotton
TTITLE6=I Sent You Up
TTITLE7=Muse
TTITLE8=Careening
TTITLE9=Slavery
TTITLE10=Red Bird
EXTD=
EXTT0=
EXTT1=
EXTT2=
EXTT3=
EXTT4=
EXTT5=
EXTT6=
EXTT7=
EXTT8=
EXTT9=
EXTT10=
PLAYORDER=
